<svg width="19" height="20" viewBox="0 0 19 20" fill="none" xmlns="http://www.w3.org/2000/svg">
<path d="M12.645 19.0754H6.93072L6.21643 13.3611H13.3593L12.645 19.0754Z" stroke="#D4A574" stroke-linecap="round" stroke-linejoin="round"/>
<path d="M16.7594 8.46112C16.4673 8.71531 16.1267 8.9075 15.7581 9.02602C15.3896 9.14453 15.0007 9.18691 14.6153 9.15056C14.2298 9.11422 13.8558 8.99992 13.5159 8.81459C13.176 8.62927 12.8772 8.3768 12.6379 8.0725C12.3985 7.76821 12.2235 7.41844 12.1234 7.04443C12.0234 6.67043 12.0004 6.27999 12.0558 5.89682C12.1113 5.51365 12.244 5.14575 12.446 4.81546C12.648 4.48516 12.915 4.19936 13.2308 3.97541C14.4594 3.00398 18.3594 3.57541 18.3594 3.57541C18.3594 3.57541 18.0022 7.4897 16.7594 8.46112Z" stroke="#D4A574" stroke-linecap="round" stroke-linejoin="round"/>
<path d="M12.645 7.84687C11.8191 8.52363 11.1398 9.36164 10.6485 10.3097C10.1573 11.2578 9.86444 12.2961 9.78789 13.3612C9.78789 9.07544 7.64504 6.2183 4.07361 4.07544" stroke="#D4A574" stroke-linecap="round" stroke-linejoin="round"/>
<path d="M1.81646 6.93261C2.5159 7.53335 3.41645 7.84773 4.3378 7.81281C5.25915 7.77789 6.13331 7.39624 6.78528 6.74428C7.43724 6.09232 7.81888 5.21815 7.8538 4.2968C7.88873 3.37545 7.57434 2.47491 6.9736 1.77546C5.54503 0.361178 0.502174 0.504035 0.502174 0.504035C0.502174 0.504035 0.387889 5.50404 1.81646 6.93261Z" stroke="#D4A574" stroke-linecap="round" stroke-linejoin="round"/>
</svg>
